<svg width="50" height="50" viewBox="0 0 50 50" fill="none" xmlns="http://www.w3.org/2000/svg">
<path d="M25.0002 0C11.1931 0 0 11.1931 0 25.0002C0 37.3835 9.01304 47.6389 20.8306 49.6248V30.2159H14.7999V23.2314H20.8306V18.0813C20.8306 12.1057 24.4803 8.84932 29.8118 8.84932C32.3652 8.84932 34.5595 9.03959 35.1966 9.12339V15.3695L31.4988 15.3713C28.6001 15.3713 28.0412 16.7485 28.0412 18.7702V23.2278H34.958L34.0558 30.2123H28.0412V49.7918C40.4105 48.2864 50 37.7697 50 24.993C50 11.1931 38.8069 0 25.0002 0Z" fill="white"/>
</svg>
