<svg width="50" height="48" viewBox="0 0 50 48" fill="none" xmlns="http://www.w3.org/2000/svg">
<path d="M25 0C11.1875 0 0 11.019 0 24.609C0 35.484 7.1625 44.7061 17.0937 47.9575C18.3437 48.1892 18.8021 47.4275 18.8021 46.7743C18.8021 46.1899 18.7812 44.6414 18.7708 42.59C11.8167 44.0738 10.35 39.2885 10.35 39.2885C9.2125 36.4482 7.56875 35.6885 7.56875 35.6885C5.30417 34.163 7.74375 34.1943 7.74375 34.1943C10.2542 34.3654 11.5729 36.7299 11.5729 36.7299C13.8021 40.4926 17.425 39.4053 18.8542 38.7772C19.0792 37.1848 19.7229 36.1017 20.4375 35.4861C14.8854 34.8704 9.05 32.7543 9.05 23.3256C9.05 20.6397 10.0187 18.4442 11.6229 16.7225C11.3417 16.1006 10.4979 13.5984 11.8417 10.2092C11.8417 10.2092 13.9354 9.54977 18.7167 12.7323C20.7167 12.1856 22.8417 11.9143 24.9667 11.9017C27.0917 11.9143 29.2167 12.1856 31.2167 12.7323C35.9667 9.54977 38.0604 10.2092 38.0604 10.2092C39.4042 13.5984 38.5604 16.1006 38.3104 16.7225C39.9042 18.4442 40.8729 20.6397 40.8729 23.3256C40.8729 32.7793 35.0292 34.86 29.4667 35.4652C30.3417 36.204 31.1542 37.7128 31.1542 40.0189C31.1542 43.312 31.1229 45.9583 31.1229 46.7576C31.1229 47.4024 31.5604 48.1725 32.8417 47.9262C42.8437 44.6957 50 35.4673 50 24.609C50 11.019 38.8062 0 25 0V0Z" fill="white"/>
</svg>
