<svg width="71" height="71" viewBox="0 0 71 71" fill="none" xmlns="http://www.w3.org/2000/svg">
<path d="M35.5 0C15.8969 0 0 15.8969 0 35.5C0 55.1031 15.8969 71 35.5 71C55.1031 71 71 55.1031 71 35.5C71 15.8969 55.1031 0 35.5 0ZM51.7089 27.6791C51.7246 28.0285 51.7322 28.3795 51.7322 28.7322C51.7322 39.4993 43.5365 51.9153 28.5485 51.9158H28.5491H28.5485C23.9469 51.9158 19.6649 50.567 16.0589 48.2556C16.6964 48.3309 17.3454 48.3683 18.0024 48.3683C21.8202 48.3683 25.3336 47.0661 28.1228 44.8804C24.5558 44.8143 21.5483 42.4585 20.5104 39.2208C21.0072 39.3162 21.518 39.3682 22.0418 39.3682C22.7855 39.3682 23.506 39.268 24.1907 39.0811C20.4622 38.3346 17.6536 35.0396 17.6536 31.0939C17.6536 31.0571 17.6536 31.024 17.6547 30.9899C18.7527 31.6004 20.0083 31.9677 21.3452 32.0088C19.1573 30.549 17.7191 28.0534 17.7191 25.2264C17.7191 23.7335 18.1227 22.3348 18.8225 21.1307C22.8408 26.0611 28.8459 29.3036 35.6181 29.6444C35.4783 29.0474 35.4063 28.4256 35.4063 27.7864C35.4063 23.2882 39.0556 19.6389 43.5554 19.6389C45.8993 19.6389 48.0162 20.6296 49.5032 22.2135C51.3595 21.8473 53.1027 21.1691 54.6773 20.2358C54.0679 22.1377 52.7766 23.7335 51.0941 24.7426C52.7424 24.5455 54.3133 24.1083 55.7732 23.4594C54.6828 25.0937 53.2998 26.5291 51.7089 27.6791V27.6791Z" fill="white"/>
</svg>
