<svg width="50" height="50" viewBox="0 0 50 50" fill="none" xmlns="http://www.w3.org/2000/svg">
<path d="M25.0002 0C11.1931 0 0 11.2399 0 25.1047C0 37.5398 9.01304 47.8381 20.8306 49.8323V30.3422H14.7999V23.3285H20.8306V18.1569C20.8306 12.1563 24.4803 8.88631 29.8118 8.88631C32.3652 8.88631 34.5595 9.07738 35.1966 9.16153V15.4337L31.4988 15.4355C28.6001 15.4355 28.0412 16.8185 28.0412 18.8486V23.3249H34.958L34.0558 30.3386H28.0412V50C40.4105 48.4883 50 37.9276 50 25.0975C50 11.2399 38.8069 0 25.0002 0Z" fill="#4267B2"/>
</svg>
