<svg width="33" height="22" viewBox="0 0 33 22" fill="none" xmlns="http://www.w3.org/2000/svg">
<path d="M0 16.8305C0 17.1589 0.230149 17.4167 0.558578 17.4167H1.45041C2.04965 16.0949 3.41398 15.0947 4.99812 15.0947C6.58234 15.0947 7.94636 16.0949 8.54591 17.4167H20.138V12.6737H0V16.8305Z" fill="#F37990"/>
<path d="M4.99809 16.3481C3.54621 16.3481 2.36926 17.525 2.36926 18.9769C2.36926 20.4288 3.54621 21.6057 4.99809 21.6057C6.44928 21.6041 7.62529 20.4281 7.62692 18.9769C7.62692 17.5251 6.44998 16.3481 4.99809 16.3481Z" fill="#F37990"/>
<path d="M31.6921 10.7418L29.1885 9.64136H21.3821V17.4167H22.8973C23.497 16.0949 24.8609 15.0946 26.445 15.0946C28.0292 15.0946 29.3935 16.0949 29.9928 17.4167H31.4757C31.8041 17.4167 32.0342 17.1589 32.0342 16.8305V11.3074C32.0425 11.0677 31.9083 10.8458 31.6921 10.7418Z" fill="#F37990"/>
<path d="M26.6145 5.15844C26.3021 4.55935 25.6782 4.18792 25.0027 4.19865H21.3821V8.39732H28.2955L26.6145 5.15844Z" fill="#F37990"/>
<path d="M18.3525 0H1.77619C0.776364 0 0 0.823094 0 1.82292V11.4297H20.138V1.82292C20.138 1.82012 20.1381 1.81732 20.1381 1.81452C20.1461 0.82045 19.3467 0.00800856 18.3525 0Z" fill="#F37990"/>
<path d="M26.4449 16.3481C24.993 16.3481 23.8161 17.5251 23.8161 18.977C23.8162 20.4288 24.9932 21.6058 26.445 21.6057C27.8962 21.6041 29.0722 20.4281 29.0738 18.9769V18.9768C29.0737 17.525 27.8968 16.3481 26.4449 16.3481Z" fill="#F37990"/>
</svg>
