<svg width="28" height="28" viewBox="0 0 28 28" fill="none" xmlns="http://www.w3.org/2000/svg">
<path d="M19.9668 16.7469L21.9699 14.9979C22.3208 14.692 22.358 14.1589 22.0509 13.808C21.745 13.4571 21.2119 13.4211 20.8598 13.727L17.1697 16.9482C16.9875 17.1079 16.8818 17.3396 16.8818 17.5836C16.8818 17.8277 16.9875 18.0594 17.1708 18.2191L20.861 21.4391C21.0218 21.5786 21.2186 21.6472 21.4155 21.6472C21.6505 21.6472 21.8845 21.5493 22.0509 21.3581C22.3568 21.0072 22.3208 20.4741 21.9699 20.1682L19.9927 18.4429C22.9417 18.5318 25.3159 20.9937 25.3159 24.0237V26.1707C25.3159 26.6364 25.6938 27.0143 26.1594 27.0143C26.6251 27.0143 27.0041 26.6375 27.0041 26.1719V24.0248C27.0041 20.0535 23.8594 16.82 19.9668 16.7469Z" fill="#F37990"/>
<path d="M10.381 0.0224609L4.91496 0.044955C4.20639 0.044955 3.54282 0.438601 3.20541 1.05719L0.348663 6.23082L9.82991 6.20833L10.381 0.0224609Z" fill="#F37990"/>
<path d="M22.1454 6.18587L19.2549 1.01223C18.9062 0.393646 18.2539 0 17.5341 0L12.0681 0.0224941L12.6417 6.20836L22.1454 6.18587Z" fill="#F37990"/>
<path d="M22.5053 11.472C22.1679 11.337 21.7967 11.2695 21.4143 11.2695C20.672 11.2695 19.9522 11.5395 19.3786 12.0343L15.6896 15.251C15.0148 15.8358 14.6324 16.6906 14.6324 17.5791C14.6324 18.4789 15.0148 19.3224 15.6896 19.9185L18.6588 22.5053L1.82202 22.5503C1.81077 22.5503 1.81077 22.5503 1.81077 22.5503C0.843527 22.5503 0.0449881 21.7518 0.0449881 20.7733L0 7.91793L10.4035 7.89544H12.0906L22.4941 7.86169L22.5053 11.472Z" fill="#F37990"/>
</svg>
