<svg width="31" height="34" viewBox="0 0 31 34" fill="none" xmlns="http://www.w3.org/2000/svg">
<path d="M30.5787 4.75848C30.5164 4.3201 30.1943 3.95951 29.7589 3.84099L15.8041 0.0406669C15.6051 -0.0135556 15.395 -0.0135556 15.1959 0.0406669L1.2411 3.84099C0.805693 3.95951 0.483601 4.31995 0.42127 4.75848C0.340331 5.3284 -1.50614 18.7946 3.22993 25.4936C7.96041 32.1846 14.9389 33.8993 15.2336 33.969C15.3212 33.9898 15.4104 34 15.5 34C15.5896 34 15.6788 33.9896 15.7664 33.969C16.0613 33.8993 23.0397 32.1846 27.7701 25.4936C32.5061 18.7947 30.6597 5.32855 30.5787 4.75848ZM24.4991 12.6202L14.9805 21.9413C14.759 22.1581 14.4685 22.2667 14.1782 22.2667C13.8879 22.2667 13.5974 22.1583 13.3759 21.9413L7.49066 16.1781C7.2778 15.9698 7.15828 15.6871 7.15828 15.3925C7.15828 15.0978 7.27795 14.8151 7.49066 14.6068L8.65921 13.4625C9.10233 13.0288 9.8208 13.0286 10.2638 13.4625L14.1782 17.2957L21.726 9.90444C21.9387 9.69599 22.2273 9.57895 22.5282 9.57895C22.8291 9.57895 23.1178 9.69599 23.3305 9.90444L24.4991 11.0487C24.9422 11.4827 24.9422 12.1862 24.4991 12.6202Z" fill="#F37990"/>
</svg>
