<svg id="Capa_1" enable-background="new 0 0 512 512" height="512" viewBox="0 0 512 512" width="512" xmlns="http://www.w3.org/2000/svg"><g><path d="m506.899 44.829-1.421-3.557-26.226 26.226c-9.802 9.803-25.695 9.803-35.498 0-9.802-9.802-9.802-25.695 0-35.498l25.906-25.906-2.489-.994c-8.595-3.432-17.574-5.1-26.472-5.1-18.553 0-36.756 7.253-50.396 20.892-18.246 18.246-25.063 44.658-18.377 69.151l-54.553 54.553c.289.573.59 1.14.866 1.719.518-.012 1.035-.018 1.555-.018 17.945 0 34.816 6.988 47.505 19.678 4.981 4.981 9.039 10.593 12.159 16.598l42.5-42.499c24.494 6.686 50.905-.131 69.151-18.377 20.18-20.181 26.379-50.354 15.79-76.868z"/><path d="m129.734 332.235-39.692 39.691c-24.494-6.686-50.905.131-69.151 18.377-20.18 20.181-26.379 50.354-15.79 76.868l1.421 3.557 26.226-26.226c9.802-9.803 25.695-9.803 35.498 0 9.802 9.802 9.802 25.695 0 35.498l-25.906 25.906 2.489.994c8.595 3.432 17.574 5.1 26.473 5.1 18.553 0 36.756-7.253 50.396-20.892 18.246-18.246 25.063-44.658 18.377-69.151l81.426-81.426h-54.661c-13.262 0-25.839-2.979-37.106-8.296z"/><path d="m346.793 186.48c-13.382-13.382-34.218-14.75-49.136-4.124-.787-31.479-26.534-56.76-58.202-56.76-32.165 0-58.24 26.075-58.24 58.24v11.215h-14.375c-32.165 0-58.24 26.075-58.24 58.24 0 32.165 26.075 58.24 58.24 58.24h203.567c22.303 0 40.383-18.08 40.383-40.384 0-22.303-18.08-40.383-40.383-40.383h-16.552c7.27-14.337 4.923-32.299-7.062-44.284z"/></g></svg>