<svg width="44" height="42" viewBox="0 0 44 42" fill="none" xmlns="http://www.w3.org/2000/svg">
<path d="M43.9484 15.9589C43.7899 15.4739 43.3138 15.1697 42.5211 15.0464L29.2461 13.1163L23.2965 1.08406C22.926 0.36123 22.4943 0 22.0008 0C21.4896 0 21.0576 0.36123 20.7052 1.08406L14.755 13.1163L1.47986 15.0464C0.686632 15.1698 0.210549 15.4739 0.0520711 15.9589C-0.106222 16.4439 0.096345 16.9683 0.660327 17.5325L10.2861 26.8937L8.01192 40.1156C7.92393 40.6978 7.97663 41.1504 8.17077 41.4773C8.36454 41.8037 8.66445 41.9666 9.06986 41.9666C9.36968 41.9666 9.72221 41.861 10.1276 41.6487L22.0014 35.4075L33.8747 41.6487C34.2801 41.8604 34.6329 41.9666 34.9327 41.9666C35.3385 41.9666 35.6387 41.8037 35.832 41.4773C36.0254 41.1504 36.0783 40.6978 35.9902 40.1156L33.7162 26.8937L43.3148 17.5325C43.8968 16.9683 44.1082 16.4439 43.9484 15.9589ZM31.3618 24.4607L30.066 25.7038L30.3837 27.4491L31.9702 36.8371L23.5613 32.3944L22.0008 31.5741V6.1085L26.2054 14.6236L26.9982 16.2101L28.7441 16.4746L38.1585 17.8495L31.3618 24.4607Z" fill="#F37990"/>
</svg>
