<svg width="31" height="45" viewBox="0 0 31 45" fill="none" xmlns="http://www.w3.org/2000/svg">
<path d="M8.36952 13.782C8.36952 10.1081 11.3585 7.11914 15.0324 7.11914C18.7059 7.11914 21.6949 10.1081 21.6949 13.782C21.6949 17.4556 18.7063 20.4445 15.0324 20.4445C11.3585 20.4445 8.36952 17.4556 8.36952 13.782Z" fill="white"/>
<path d="M15.0324 37.0898C14 35.745 7.94724 27.4267 5.90961 24.6475C3.4861 21.3423 1.25038 18.0262 1.25038 13.782C1.25038 6.17054 7.42092 0.000343323 15.0324 0.000343323L15.0341 0C22.6459 0 28.814 6.1702 28.814 13.7817C28.814 18.0258 26.5787 21.3423 24.1552 24.6475C22.1172 27.4267 15.0324 37.0898 15.0324 37.0898ZM24.3316 13.782C24.3316 8.65414 20.1599 4.48242 15.0324 4.48242C9.90452 4.48242 5.7328 8.65414 5.7328 13.782C5.7328 18.9095 9.90452 23.0812 15.0324 23.0812C20.1599 23.0812 24.3316 18.9095 24.3316 13.782Z" fill="white"/>
<path d="M9.97112 34.6468C10.2441 35.0196 15.0808 41.483 15.0808 41.483L20.093 34.6468H26.1612L30.0648 45H0L3.90392 34.6468H9.97112Z" fill="white"/>
</svg>
