<svg width="598" height="134" viewBox="0 0 598 134" fill="none" xmlns="http://www.w3.org/2000/svg">
    <path
        d="M159.272 49.872C155.24 50 152.136 51.536 149.96 54.48C147.848 57.424 146.792 62.512 146.792 69.744C146.792 72.112 147.016 73.776 147.464 74.736C147.912 75.632 148.136 76.144 148.136 76.272C144.68 76.272 142.088 75.568 140.36 74.16C138.696 72.688 137.864 70.288 137.864 66.96C137.864 62.416 138.984 58.288 141.224 54.576C143.464 50.8 147.016 47.76 151.88 45.456C156.808 43.152 163.048 42 170.6 42C172.136 42 174.184 42.16 176.744 42.48C181.352 42.928 184.616 43.152 186.536 43.152C189.928 43.152 192.808 42.768 195.176 42C194.984 42.576 194.632 43.856 194.12 45.84C193.608 47.76 192.68 49.424 191.336 50.832C190.056 52.176 188.296 53.072 186.056 53.52C182.28 53.52 177.8 52.912 172.616 51.696L168.584 70.8H182.6L181.064 77.904H167.048L159.272 114H145.448L159.272 49.872ZM187.591 66H201.415L200.167 71.952C202.343 70.032 204.295 68.56 206.023 67.536C207.815 66.512 209.735 66 211.783 66C213.831 66 215.431 66.704 216.583 68.112C217.799 69.52 218.407 71.216 218.407 73.2C218.407 75.056 217.799 76.688 216.583 78.096C215.367 79.504 213.671 80.208 211.495 80.208C210.087 80.208 209.127 79.888 208.615 79.248C208.167 78.544 207.815 77.552 207.559 76.272C207.367 75.44 207.175 74.832 206.983 74.448C206.791 74.064 206.439 73.872 205.927 73.872C204.583 73.872 203.431 74.16 202.471 74.736C201.575 75.248 200.391 76.176 198.919 77.52L191.239 114H177.414L187.591 66ZM230.884 114.576C226.148 114.576 222.468 113.36 219.844 110.928C217.22 108.432 215.908 104.56 215.908 99.312C215.908 94.896 216.772 90.032 218.5 84.72C220.228 79.408 223.044 74.832 226.948 70.992C230.852 67.088 235.812 65.136 241.828 65.136C248.868 65.136 252.388 68.208 252.388 74.352C252.388 77.936 251.364 81.232 249.316 84.24C247.268 87.248 244.548 89.68 241.156 91.536C237.764 93.328 234.148 94.352 230.308 94.608C230.18 96.528 230.116 97.808 230.116 98.448C230.116 101.584 230.66 103.728 231.748 104.88C232.836 105.968 234.596 106.512 237.028 106.512C240.484 106.512 243.428 105.712 245.86 104.112C248.356 102.512 251.076 100.08 254.02 96.816H257.284C250.18 108.656 241.38 114.576 230.884 114.576ZM231.076 90C233.444 89.872 235.684 89.04 237.796 87.504C239.972 85.968 241.7 84.016 242.98 81.648C244.324 79.28 244.996 76.784 244.996 74.16C244.996 71.536 244.196 70.224 242.596 70.224C240.292 70.224 238.02 72.24 235.78 76.272C233.604 80.304 232.036 84.88 231.076 90ZM264.944 114.576C261.872 114.576 259.28 114 257.168 112.848C255.056 111.632 253.488 110.096 252.464 108.24C251.44 106.32 250.928 104.336 250.928 102.288C250.928 100.176 251.44 98.352 252.464 96.816C253.424 95.216 254.608 94.064 256.016 93.36C258.512 88.88 260.688 84.368 262.544 79.824C264.4 75.216 266.16 70.256 267.824 64.944L282.032 63.024C282.352 71.216 282.896 80.08 283.664 89.616C283.984 93.456 284.144 96.24 284.144 97.968C284.144 99.44 284.016 100.656 283.76 101.616C286.768 99.888 289.072 98.288 290.672 96.816H294.704C290.608 101.552 285.712 105.552 280.016 108.816C278.16 110.8 275.856 112.272 273.104 113.232C270.416 114.128 267.696 114.576 264.944 114.576ZM261.872 106.992C264.24 106.992 266.224 106.288 267.824 104.88C269.424 103.472 270.224 101.2 270.224 98.064C270.224 96.144 270.032 93.456 269.648 90C269.008 82.704 268.592 77.808 268.4 75.312C266.864 80.368 264.272 86.416 260.624 93.456C262.096 94.224 262.832 95.344 262.832 96.816C262.832 98.032 262.416 99.12 261.584 100.08C260.816 101.04 259.824 101.52 258.608 101.52C257.264 101.52 256.4 101.104 256.016 100.272C256.016 102.576 256.464 104.272 257.36 105.36C258.32 106.448 259.824 106.992 261.872 106.992ZM323.584 114.576C320.192 114.576 317.728 113.552 316.192 111.504C314.656 109.456 313.888 106.864 313.888 103.728C313.888 102.384 314.048 100.88 314.368 99.216C314.688 97.488 315.008 95.824 315.328 94.224C315.712 92.624 315.968 91.6 316.096 91.152C316.608 88.912 317.088 86.704 317.536 84.528C317.984 82.352 318.208 80.592 318.208 79.248C318.208 75.984 317.056 74.352 314.752 74.352C313.216 74.352 311.808 75.056 310.528 76.464C309.312 77.872 308.32 79.728 307.552 82.032L300.736 114H286.912L300.832 48.72L315.04 46.8L309.856 70.896C313.056 67.376 316.8 65.616 321.088 65.616C324.352 65.616 326.944 66.512 328.864 68.304C330.784 70.096 331.744 72.816 331.744 76.464C331.744 78.32 331.52 80.4 331.072 82.704C330.624 84.944 329.984 87.696 329.152 90.96C328.64 92.944 328.16 94.896 327.712 96.816C327.328 98.672 327.136 100.144 327.136 101.232C327.136 102.512 327.424 103.504 328 104.208C328.576 104.912 329.568 105.264 330.976 105.264C332.512 105.264 333.568 105.072 334.144 104.688C333.76 107.952 332.576 110.416 330.592 112.08C328.672 113.744 326.336 114.576 323.584 114.576ZM390.297 115.248C386.457 115.248 382.553 113.552 378.585 110.16L377.817 114H363.993L377.049 52.944L391.257 51.024L379.737 104.88C381.529 106.16 383.353 106.8 385.209 106.8C388.857 106.8 392.057 104.688 394.809 100.464C397.625 96.24 399.801 90.864 401.337 84.336C402.873 77.808 403.641 71.216 403.641 64.56C403.641 58.288 402.393 53.712 399.897 50.832C397.465 47.888 394.041 46.416 389.625 46.416C384.825 46.416 380.505 47.376 376.665 49.296C372.889 51.152 369.913 53.84 367.737 57.36C365.561 60.88 364.473 65.008 364.473 69.744C364.473 72.112 364.697 73.776 365.145 74.736C365.593 75.632 365.817 76.144 365.817 76.272C362.489 76.272 359.929 75.568 358.137 74.16C356.409 72.752 355.545 70.48 355.545 67.344C355.545 62.992 357.177 58.864 360.441 54.96C363.705 51.056 368.057 47.92 373.497 45.552C379.001 43.184 384.921 42 391.257 42C400.025 42 406.489 44.592 410.649 49.776C414.809 54.96 416.889 61.584 416.889 69.648C416.889 76.944 415.641 84.144 413.145 91.248C410.713 98.288 407.449 104.048 403.353 108.528C399.257 113.008 394.905 115.248 390.297 115.248ZM425.153 66H438.977L437.729 71.952C439.905 70.032 441.857 68.56 443.585 67.536C445.377 66.512 447.297 66 449.345 66C451.393 66 452.993 66.704 454.145 68.112C455.361 69.52 455.969 71.216 455.969 73.2C455.969 75.056 455.361 76.688 454.145 78.096C452.929 79.504 451.233 80.208 449.057 80.208C447.649 80.208 446.689 79.888 446.177 79.248C445.729 78.544 445.377 77.552 445.121 76.272C444.929 75.44 444.737 74.832 444.545 74.448C444.353 74.064 444.001 73.872 443.489 73.872C442.145 73.872 440.993 74.16 440.033 74.736C439.137 75.248 437.953 76.176 436.481 77.52L428.801 114H414.977L425.153 66ZM470.751 60.816C468.639 60.816 466.847 60.08 465.375 58.608C463.903 57.136 463.167 55.344 463.167 53.232C463.167 51.12 463.903 49.328 465.375 47.856C466.847 46.32 468.639 45.552 470.751 45.552C472.863 45.552 474.655 46.32 476.127 47.856C477.663 49.328 478.431 51.12 478.431 53.232C478.431 55.344 477.663 57.136 476.127 58.608C474.655 60.08 472.863 60.816 470.751 60.816ZM464.223 114.576C461.151 114.576 458.655 113.616 456.735 111.696C454.879 109.776 453.951 106.896 453.951 103.056C453.951 101.456 454.207 99.376 454.719 96.816L461.247 66H475.071L468.159 98.64C467.903 99.6 467.775 100.624 467.775 101.712C467.775 102.992 468.063 103.92 468.639 104.496C469.279 105.008 470.303 105.264 471.711 105.264C473.567 105.264 475.295 104.496 476.895 102.96C478.495 101.36 479.647 99.312 480.351 96.816H484.383C482.015 103.728 478.975 108.432 475.263 110.928C471.551 113.36 467.871 114.576 464.223 114.576ZM514.969 114.576C511.065 114.576 508.185 113.552 506.329 111.504C504.537 109.392 503.641 106.8 503.641 103.728C503.641 102.384 503.801 100.88 504.121 99.216C504.441 97.488 504.761 95.824 505.081 94.224C505.465 92.624 505.72 91.6 505.849 91.152C506.361 88.912 506.841 86.704 507.289 84.528C507.737 82.352 507.961 80.592 507.961 79.248C507.961 75.984 506.809 74.352 504.505 74.352C502.841 74.352 501.369 75.184 500.089 76.848C498.809 78.448 497.785 80.56 497.017 83.184L490.489 114H476.664L486.841 66H500.665L499.609 70.992C502.809 67.408 506.553 65.616 510.841 65.616C514.105 65.616 516.697 66.512 518.617 68.304C520.537 70.096 521.497 72.816 521.497 76.464C521.497 78.32 521.273 80.4 520.825 82.704C520.377 84.944 519.737 87.696 518.905 90.96C518.393 92.944 517.913 94.896 517.465 96.816C517.081 98.672 516.889 100.144 516.889 101.232C516.889 102.512 517.177 103.504 517.753 104.208C518.329 104.912 519.321 105.264 520.729 105.264C522.649 105.264 524.185 104.592 525.337 103.248C526.489 101.84 527.641 99.696 528.792 96.816H532.825C530.457 103.856 527.705 108.592 524.569 111.024C521.497 113.392 518.297 114.576 514.969 114.576ZM564.877 114.576C560.909 114.576 557.901 113.648 555.853 111.792C553.805 109.872 552.781 107.152 552.781 103.632C552.781 102.096 552.973 100.432 553.357 98.64L554.125 94.896C554.381 93.808 554.509 92.624 554.509 91.344C554.509 88.272 553.357 86.736 551.053 86.736C550.029 86.736 548.941 87.024 547.789 87.6C546.701 88.176 545.421 89.072 543.949 90.288L538.957 114H525.133L539.053 48.72L553.261 46.8L546.061 80.592L564.589 66H574.093L554.893 79.344C555.853 79.088 556.909 78.96 558.061 78.96C561.517 78.96 564.141 80.016 565.933 82.128C567.725 84.24 568.621 86.928 568.621 90.192C568.621 91.536 568.493 92.752 568.237 93.84L567.181 98.64C566.861 99.792 566.701 100.816 566.701 101.712C566.701 104.08 567.949 105.264 570.445 105.264C571.853 105.264 572.749 105.168 573.133 104.976C573.517 104.784 573.741 104.688 573.805 104.688C573.677 106.8 573.069 108.592 571.981 110.064C570.957 111.536 569.741 112.656 568.333 113.424C566.989 114.192 565.837 114.576 564.877 114.576Z"
        fill="black" />
    <path
        d="M93.0353 0C82.2306 0 73.3101 8.21934 72.1948 18.7343H57.6281C56.3984 18.7343 55.4015 19.7311 55.4015 20.9608C55.4015 22.1905 56.3984 23.1874 57.6281 23.1874H87.6601L74.5919 36.2604C72.1665 37.621 68.125 37.5879 65.7938 36.1513C61.9594 33.7931 55.9577 33.7936 52.132 36.1513C49.7342 37.6262 45.5273 37.6259 43.1313 36.1524C40.6525 34.6248 37.2616 34.0877 34.1378 34.5388L25.8062 23.1876H37.6335C38.8632 23.1876 39.86 22.1908 39.86 20.961C39.86 19.7313 38.8632 18.7345 37.6335 18.7345H22.5375L10.5664 2.42405C9.83851 1.43279 8.44535 1.2186 7.45385 1.94646C6.46258 2.6741 6.24861 4.06748 6.97625 5.05896L17.0136 18.7343H2.22653C1.3261 18.7343 0.514296 19.2767 0.169622 20.1085C-0.175051 20.9403 0.0153207 21.898 0.651898 22.5348L17.7259 39.6143C17.7482 39.6367 17.7696 39.6597 17.7929 39.6813L32.1316 54.0245L36.6206 64.5486C37.8296 67.383 39.3606 69.1398 43.2507 69.1398H45.4042V95.235L25.9553 110C25.1941 110.578 24.8866 111.578 25.1914 112.484C25.4962 113.39 26.3456 114 27.3017 114H67.9536C68.9095 114 69.7587 113.39 70.0639 112.484C70.369 111.578 70.0615 110.578 69.3002 110L49.8574 95.2352V69.1398H52.0109C55.9009 69.1398 57.4317 67.383 58.641 64.5486L63.1297 54.0248L77.4684 39.6817C77.4918 39.6601 77.5134 39.637 77.5357 39.6143L79.8707 37.2786C83.5846 40.2907 88.182 41.9283 93.0348 41.9283C104.595 41.9283 114 32.5224 114 20.961C114 9.40298 104.596 0 93.0353 0V0ZM20.6697 36.2604L7.60081 23.1874H20.2825L29.6984 36.0161C29.6207 36.0611 29.5423 36.1054 29.4662 36.1522C27.1365 37.5879 23.0951 37.621 20.6697 36.2604V36.2604ZM61.3402 109.547H33.9171L47.6308 99.1357L61.3402 109.547ZM54.5452 62.8012C53.816 64.5103 53.5793 64.6864 52.0111 64.6864H43.2509C41.6827 64.6864 41.4458 64.5101 40.7168 62.8012L37.3814 54.9813H57.8806L54.5452 62.8012ZM60.3285 50.5284H34.9333L26.0787 41.6709C28.1565 41.5204 30.1754 40.946 31.8005 39.9442C34.199 38.4691 38.4019 38.4687 40.7968 39.9442C44.6289 42.301 50.6326 42.3008 54.4666 39.9431C56.8595 38.4687 61.0626 38.4691 63.4595 39.9431C65.0858 40.9453 67.1048 41.5202 69.1831 41.6709L60.3285 50.5284ZM76.6793 18.7343C77.0705 15.8446 78.2148 13.1924 79.9034 10.9765L87.6603 18.7343H76.6793ZM90.8087 37.3245C87.9736 36.9446 85.3108 35.844 83.0406 34.108L90.8087 26.3375V37.3245ZM90.8087 15.585L83.0524 7.82791C85.2681 6.13951 87.9202 4.99573 90.8087 4.60452V15.585ZM109.395 18.7343H98.4102L106.17 10.9731C107.861 13.1897 109.003 15.8444 109.395 18.7343ZM95.2618 4.60742C98.1508 4.99862 100.805 6.13729 103.021 7.82524L95.2618 15.585V4.60742ZM95.2618 37.3207V26.3368L103.021 34.0964C100.804 35.7848 98.1515 36.9293 95.2618 37.3207ZM106.17 30.9485L98.4102 23.1874H109.395C109.003 26.0777 107.86 28.7322 106.17 30.9485V30.9485Z"
        fill="#D55669" />
</svg>