<svg width="41" height="37" viewBox="0 0 41 37" fill="none" xmlns="http://www.w3.org/2000/svg">
<path d="M40.646 18.2839C38.6127 16.2505 38.56 16.2432 38.3026 16.1217C37.9088 15.9343 37.4132 15.97 37.0393 16.2672C36.9568 16.333 37.0089 16.2859 35.0109 18.284C34.5407 18.7541 34.5407 19.5164 35.0109 19.9865C35.4309 20.4064 36.0835 20.4501 36.5531 20.1198C35.8028 27.6911 29.6859 33.9965 21.6955 34.5815C21.0324 34.63 20.5342 35.207 20.5828 35.8702C20.6312 36.5311 21.2061 37.0317 21.8714 36.9829C31.0731 36.3091 38.2261 28.9987 38.9737 20.083C39.1909 20.2531 39.5328 20.3391 39.795 20.3391C40.8577 20.3391 41.4066 19.0444 40.646 18.2839Z" fill="white"/>
<path d="M19.3029 2.40467C19.966 2.35611 20.4642 1.77921 20.4156 1.11603C20.367 0.452929 19.7905 -0.0456397 19.127 0.0033183C9.91885 0.677735 2.77211 7.99455 2.02506 16.9032C1.55273 16.5331 0.787622 16.5647 0.352618 16.9998C-0.117539 17.4698 -0.117539 18.2321 0.352618 18.7023C2.60388 20.9536 2.31768 20.5881 2.38502 20.652C2.87733 21.1147 3.6178 21.0724 4.06163 20.6285L5.98784 18.7023C6.458 18.2322 6.458 17.4699 5.98784 16.9998C5.56793 16.5799 4.91534 16.5362 4.44559 16.8665C5.19585 9.29538 11.3125 2.98992 19.3029 2.40467Z" fill="white"/>
<path d="M20.4993 7.01611C14.1708 7.01611 9.02228 12.1646 9.02228 18.4932C9.02228 24.8217 14.1708 29.9702 20.4993 29.9702C26.8278 29.9702 31.9764 24.8217 31.9764 18.4932C31.9764 12.1646 26.8278 7.01611 20.4993 7.01611ZM21.7294 23.7052V23.9568C21.7294 24.6216 21.1903 25.1607 20.5255 25.1607C19.8606 25.1607 19.3216 24.6216 19.3216 23.9568V23.8413C18.7669 23.744 18.2602 23.5365 17.6199 23.1176C17.0635 22.7536 16.9076 22.0075 17.2715 21.4511C17.6355 20.8946 18.3817 20.7387 18.938 21.1026C19.5249 21.4866 19.715 21.5165 20.5173 21.511C21.2918 21.5058 21.6004 20.8979 21.6607 20.5395C21.7148 20.2178 21.654 19.79 21.0574 19.5791C20.0578 19.2258 19.0328 18.8203 18.3067 18.2508C16.6533 16.9539 17.1524 13.992 19.3217 13.2038V13.0294C19.3217 12.3646 19.8607 11.8256 20.5256 11.8256C21.1904 11.8256 21.7294 12.3646 21.7294 13.0294V13.0962C22.3226 13.2636 22.8003 13.5665 23.1285 13.9002C23.5947 14.3742 23.5883 15.1364 23.1143 15.6026C22.6405 16.0686 21.8788 16.0624 21.4127 15.5892C21.3455 15.5236 20.9746 15.2144 20.1717 15.4562C19.8511 15.5528 19.765 15.8852 19.7462 15.9848C19.7071 16.1927 19.7629 16.3328 19.7927 16.3563C20.2468 16.7124 21.0925 17.0377 21.8599 17.309C25.0328 18.4305 24.6463 22.6506 21.7294 23.7052Z" fill="white"/>
</svg>
