<?xml version="1.0" encoding="iso-8859-1"?>
<!-- Generator: Adobe Illustrator 19.0.0, SVG Export Plug-In . SVG Version: 6.00 Build 0)  -->
<svg version="1.1" id="Capa_1" xmlns="http://www.w3.org/2000/svg" xmlns:xlink="http://www.w3.org/1999/xlink" x="0px" y="0px"
	 viewBox="0 0 512 512" style="enable-background:new 0 0 512 512;" xml:space="preserve">
<g>
	<g>
		<path d="M293.3,245.366l-17.713-2.573c-5.375-0.78-10.02-4.154-12.425-9.024l-7.923-16.054l-7.921,16.05
			c-2.407,4.874-7.052,8.248-12.427,9.028l-17.711,2.573l12.818,12.494c3.892,3.795,5.665,9.258,4.744,14.613l-3.025,17.633
			l15.843-8.329c4.812-2.525,10.546-2.525,15.348-0.005l15.854,8.334l-3.026-17.641c-0.92-5.348,0.854-10.81,4.745-14.604
			L293.3,245.366z"/>
	</g>
</g>
<g>
	<g>
		<path d="M511.85,137.56c-1.162-8.209-8.751-13.932-16.968-12.762l-147.913,20.921c-24.941-20.841-57.027-33.403-91.995-33.403
			c-35.027,0-67.161,12.605-92.121,33.509L17.117,125.211c-8.207-1.163-15.807,4.553-16.967,12.762
			c-1.161,8.21,4.553,15.805,12.763,16.967l125.1,17.694c-6.092,8.523-11.28,17.735-15.415,27.497l-76.213-10.779
			c-8.206-1.166-15.807,4.553-16.968,12.762s4.553,15.806,12.763,16.968l71.626,10.131c-1.643,8.681-2.514,17.633-2.514,26.786
			c0,1.411,0.026,2.816,0.067,4.219l-27.088-3.831c-8.203-1.167-15.807,4.553-16.967,12.762
			c-1.161,8.209,4.553,15.806,12.763,16.968l35.582,5.032c15.721,62.291,72.223,108.535,139.328,108.535
			c67.15,0,123.683-46.307,139.359-108.663l37.601-5.319c8.21-1.161,13.924-8.758,12.763-16.968
			c-1.161-8.209-8.751-13.926-16.968-12.762l-29.134,4.12c0.038-1.36,0.062-2.724,0.062-4.093c0-9.195-0.879-18.188-2.537-26.907
			l73.7-10.424c8.21-1.161,13.924-8.757,12.763-16.967c-1.161-8.209-8.75-13.926-16.968-12.762l-78.315,11.076
			c-4.146-9.762-9.344-18.972-15.447-27.494l127.233-17.995C507.298,153.365,513.012,145.769,511.85,137.56z M333.876,247.741
			l-27.345,26.657l6.456,37.641c1.068,6.24-1.448,12.423-6.567,16.141c-2.893,2.101-6.276,3.168-9.683,3.169
			c-2.622,0-5.257-0.632-7.693-1.912l-33.806-17.773l-33.803,17.772c-5.603,2.943-12.26,2.461-17.378-1.255
			c-5.117-3.718-7.635-9.901-6.568-16.136l6.457-37.646l-27.347-26.658c-4.529-4.414-6.129-10.894-4.177-16.911
			c1.954-6.017,7.056-10.322,13.316-11.235l37.8-5.493l16.902-34.247c2.802-5.675,8.472-9.199,14.798-9.199
			c6.325,0,11.995,3.524,14.796,9.196l0.002,0.003l16.902,34.247l37.794,5.492c6.266,0.914,11.368,5.217,13.322,11.236
			C340.008,236.846,338.407,243.326,333.876,247.741z"/>
	</g>
</g>
<g>
</g>
<g>
</g>
<g>
</g>
<g>
</g>
<g>
</g>
<g>
</g>
<g>
</g>
<g>
</g>
<g>
</g>
<g>
</g>
<g>
</g>
<g>
</g>
<g>
</g>
<g>
</g>
<g>
</g>
</svg>
