<svg width="27" height="27" viewBox="0 0 27 27" fill="none" xmlns="http://www.w3.org/2000/svg">
<path d="M26.9315 23.1357C26.8128 22.5655 26.2544 22.1995 25.684 22.3182C25.1137 22.4369 24.7477 22.9955 24.8665 23.5657C24.9348 23.8942 24.8534 24.2308 24.6431 24.4895C24.5213 24.6393 24.2496 24.8906 23.7994 24.8906H3.20059C2.75034 24.8906 2.47871 24.6393 2.35689 24.4895C2.14653 24.2309 2.06511 23.8942 2.13351 23.5657C3.22806 18.3083 7.86526 14.4679 13.2204 14.3384C13.3131 14.342 13.4063 14.3438 13.5 14.3438C13.594 14.3438 13.6875 14.3419 13.7806 14.3383C17.5528 14.4288 21.0394 16.3394 23.1508 19.4884C23.4752 19.9722 24.1303 20.1014 24.6142 19.777C25.098 19.4527 25.2273 18.7975 24.9028 18.3137C23.1723 15.7327 20.6593 13.8559 17.794 12.9128C19.5401 11.6035 20.6719 9.51734 20.6719 7.17188C20.6719 3.21732 17.4546 0 13.5 0C9.54538 0 6.32811 3.21732 6.32811 7.17188C6.32811 9.51877 7.46126 11.606 9.20914 12.9152C7.6077 13.4425 6.10504 14.2629 4.78984 15.3446C2.3782 17.3284 0.7014 20.0953 0.0684289 23.1357C-0.129958 24.0885 0.107716 25.067 0.720384 25.8204C1.33005 26.5701 2.23407 27 3.20059 27H23.7993C24.7659 27 25.6699 26.5701 26.2795 25.8204C26.8923 25.067 27.1299 24.0885 26.9315 23.1357ZM8.43748 7.17188C8.43748 4.38038 10.7085 2.10938 13.5 2.10938C16.2915 2.10938 18.5625 4.38038 18.5625 7.17188C18.5625 9.87741 16.4291 12.094 13.7562 12.2279C13.6709 12.2264 13.5855 12.2256 13.5 12.2256C13.4149 12.2256 13.3298 12.2264 13.2447 12.228C10.5714 12.0946 8.43748 9.87778 8.43748 7.17188Z" fill="white"/>
</svg>
